<?xml version="1.0" encoding="UTF-8"?>
<svg id="Layer_2" data-name="Layer 2" xmlns="http://www.w3.org/2000/svg" viewBox="0 0 143.97 143.97">
  <g id="Layer_1-2" data-name="Layer 1">
    <g>
      <path d="M127.17,83.99h-6.4c-.44,0-.8.36-.8.8v50.38c0,.44-.36.8-.8.8H8.8c-.44,0-.8-.36-.8-.8V24.8c0-.44.36-.8.8-.8h50.38c.44,0,.8-.36.8-.8v-6.4c0-.44-.36-.8-.8-.8H.8c-.44,0-.8.36-.8.8v126.37c0,.44.36.8.8.8h126.37c.44,0,.8-.36.8-.8v-58.38c0-.44-.36-.8-.8-.8Z"/>
      <path d="M143.17,0h-62.39c-.44,0-.8.36-.8.8v6.4c0,.44.36.8.8.8h49.53L41.39,96.92c-.31.31-.31.82,0,1.13l4.53,4.52c.31.31.82.31,1.13,0L135.97,13.66v49.53c0,.44.36.8.8.8h6.4c.44,0,.8-.36.8-.8V.8c0-.44-.36-.8-.8-.8Z"/>
    </g>
  </g>
</svg>